# Blender v2.79 (sub 0) OBJ File: 'tank1.blend'
# www.blender.org
mtllib body.mtl
o body_Cube
v 0.375000 0.065112 -0.373479
v 0.375000 0.065112 0.299856
v -0.375000 0.065112 0.299856
v -0.375000 0.065112 -0.373480
v 0.375000 0.420350 -0.744345
v 0.375000 0.420350 0.657242
v -0.375000 0.420350 0.657241
v -0.375000 0.420350 -0.744346
v -0.500000 0.421100 0.706448
v -0.500000 0.558600 0.706448
v -0.500000 0.421100 -0.793552
v -0.500000 0.558600 -0.793552
v 0.500000 0.421100 0.706448
v 0.500000 0.558600 0.706448
v 0.500000 0.421100 -0.793552
v 0.500000 0.558600 -0.793552
vn 0.0000 -1.0000 0.0000
vn 0.0000 1.0000 0.0000
vn 1.0000 0.0000 0.0000
vn -0.0000 -0.7092 0.7050
vn -1.0000 -0.0000 -0.0000
vn 0.0000 -0.7222 -0.6917
vn 0.0000 0.0000 -1.0000
vn 0.0000 0.0000 1.0000
g body_Cube_body_color
usemtl body_color
s off
f 2//1 4//1 1//1
f 5//2 8//2 7//2 6//2
f 1//3 5//3 6//3 2//3
f 2//4 6//4 7//4 3//4
f 3//5 7//5 8//5 4//5
f 5//6 1//6 4//6 8//6
f 9//5 10//5 12//5 11//5
f 11//7 12//7 16//7 15//7
f 15//3 16//3 14//3 13//3
f 13//8 14//8 10//8 9//8
f 11//1 15//1 13//1 9//1
f 16//2 12//2 10//2 14//2
f 2//1 3//1 4//1
