# Blender v2.79 (sub 0) OBJ File: 'tank1.blend'
# www.blender.org
mtllib turret.mtl
o turret.001_Sphere.000
v 0.113343 0.900540 0.196316
v 0.196316 0.734594 0.340030
v 0.226686 0.507907 0.392632
v 0.000000 0.961280 -0.000000
v -0.113343 0.900540 0.196316
v -0.196316 0.734594 0.340030
v -0.226686 0.507907 0.392632
v -0.226686 0.900540 0.000000
v -0.392632 0.734594 0.000000
v -0.453373 0.507907 0.000000
v -0.113343 0.900540 -0.196316
v -0.196316 0.734594 -0.340029
v -0.226686 0.507907 -0.392632
v 0.113343 0.900540 -0.196316
v 0.196316 0.734594 -0.340029
v 0.226686 0.507907 -0.392632
v 0.226686 0.900540 0.000000
v 0.392632 0.734594 0.000000
v 0.453373 0.507907 0.000000
v -0.000000 0.883367 -0.206632
v 0.000000 0.883367 0.964555
v -0.035009 0.873986 -0.206632
v -0.035009 0.873986 0.964555
v -0.060638 0.848357 -0.206632
v -0.060638 0.848357 0.964555
v -0.070019 0.813348 -0.206632
v -0.070018 0.813348 0.964555
v -0.060638 0.778339 -0.206632
v -0.060638 0.778339 0.964555
v -0.035009 0.752710 -0.206632
v -0.035009 0.752710 0.964555
v -0.000000 0.743330 -0.206632
v 0.000000 0.743330 0.964555
v 0.035009 0.752710 -0.206632
v 0.035009 0.752710 0.964555
v 0.060638 0.778339 -0.206632
v 0.060638 0.778339 0.964555
v 0.070018 0.813348 -0.206632
v 0.070019 0.813348 0.964555
v 0.060638 0.848357 -0.206632
v 0.060638 0.848357 0.964555
v 0.035009 0.873986 -0.206632
v 0.035010 0.873986 0.964555
vn 0.0000 0.2260 0.9741
vn 0.0000 0.9553 0.2956
vn -0.8436 0.2260 0.4871
vn -0.2560 0.9553 0.1478
vn -0.6547 0.6547 0.3780
vn -0.8436 0.2260 -0.4871
vn -0.2560 0.9553 -0.1478
vn -0.6547 0.6547 -0.3780
vn -0.0000 0.2260 -0.9741
vn 0.0000 0.9553 -0.2956
vn 0.0000 0.6547 -0.7559
vn 0.2560 0.9553 -0.1478
vn 0.6547 0.6547 -0.3780
vn 0.8436 0.2260 -0.4871
vn 0.6547 0.6547 0.3780
vn 0.8436 0.2260 0.4871
vn 0.2560 0.9553 0.1478
vn 0.2588 -0.9659 0.0000
vn 0.7071 -0.7071 -0.0000
vn 0.9659 -0.2588 -0.0000
vn 0.9659 0.2588 -0.0000
vn 0.7071 0.7071 -0.0000
vn 0.2588 0.9659 -0.0000
vn -0.2588 0.9659 0.0000
vn -0.7071 0.7071 0.0000
vn -0.9659 0.2588 0.0000
vn -0.9659 -0.2588 0.0000
vn -0.0000 -0.0000 -1.0000
vn -0.7071 -0.7071 0.0000
vn -0.2588 -0.9659 0.0000
vn 0.0000 -0.0000 1.0000
g turret.001_Sphere.000_turret_material.001
usemtl turret_material.001
s off
f 3//1 2//1 6//1 7//1
f 1//2 4//2 5//2
f 7//3 6//3 9//3 10//3
f 5//4 4//4 8//4
f 6//5 5//5 8//5 9//5
f 10//6 9//6 12//6 13//6
f 8//7 4//7 11//7
f 9//8 8//8 11//8 12//8
f 13//9 12//9 15//9 16//9
f 11//10 4//10 14//10
f 12//11 11//11 14//11 15//11
f 14//12 4//12 17//12
f 15//13 14//13 17//13 18//13
f 16//14 15//14 18//14 19//14
f 18//15 17//15 1//15 2//15
f 19//16 18//16 2//16 3//16
f 17//17 4//17 1//17
f 20//18 21//18 23//18 22//18
f 22//19 23//19 25//19 24//19
f 24//20 25//20 27//20 26//20
f 26//21 27//21 29//21 28//21
f 28//22 29//22 31//22 30//22
f 30//23 31//23 33//23 32//23
f 32//24 33//24 35//24 34//24
f 34//25 35//25 37//25 36//25
f 36//26 37//26 39//26 38//26
f 38//27 39//27 41//27 40//27
f 23//28 21//28 43//28 41//28 39//28 37//28 35//28 33//28 31//28 29//28 27//28 25//28
f 40//29 41//29 43//29 42//29
f 42//30 43//30 21//30 20//30
f 20//31 22//31 24//31 26//31 28//31 30//31 32//31 34//31 36//31 38//31 40//31 42//31
