<?xml version="1.0" ?><svg height="72" viewBox="0 0 72 72" width="72" xmlns="http://www.w3.org/2000/svg"><g fill="none" fill-rule="evenodd"><path d="M8,72 L64,72 C68.418278,72 72,68.418278 72,64 L72,8 C72,3.581722 68.418278,-8.11624501e-16 64,0 L8,0 C3.581722,8.11624501e-16 -5.41083001e-16,3.581722 0,8 L0,64 C5.41083001e-16,68.418278 3.581722,72 8,72 Z" fill="#FF0002"/><path d="M31.044,42.269916 L31.0425,28.6877416 L44.0115,35.5022437 L31.044,42.269916 Z M59.52,26.3341627 C59.52,26.3341627 59.0505,23.003199 57.612,21.5363665 C55.7865,19.610299 53.7405,19.6012352 52.803,19.4894477 C46.086,19 36.0105,19 36.0105,19 L35.9895,19 C35.9895,19 25.914,19 19.197,19.4894477 C18.258,19.6012352 16.2135,19.610299 14.3865,21.5363665 C12.948,23.003199 12.48,26.3341627 12.48,26.3341627 C12.48,26.3341627 12,30.2467232 12,34.1577731 L12,37.8256098 C12,41.7381703 12.48,45.6492202 12.48,45.6492202 C12.48,45.6492202 12.948,48.9801839 14.3865,50.4470165 C16.2135,52.3730839 18.612,52.3126583 19.68,52.5135736 C23.52,52.8851913 36,53 36,53 C36,53 46.086,52.9848936 52.803,52.4954459 C53.7405,52.3821478 55.7865,52.3730839 57.612,50.4470165 C59.0505,48.9801839 59.52,45.6492202 59.52,45.6492202 C59.52,45.6492202 60,41.7381703 60,37.8256098 L60,34.1577731 C60,30.2467232 59.52,26.3341627 59.52,26.3341627 L59.52,26.3341627 Z" fill="#FFF"/></g></svg>