<?xml version="1.0" ?><svg viewBox="0 0 96 96" xmlns="http://www.w3.org/2000/svg"><path fill="#ffffff" d="M94.2409,79.7569C83.999,69.515,83.999,59.7419,83.999,42a35.999,35.999,0,0,0-71.998,0c0,17.7417,0,27.5148-10.2419,37.7567A5.9993,5.9993,0,0,0,6.0012,89.9988H89.9988a5.9993,5.9993,0,0,0,4.2421-10.2419ZM48,18.0008A24.023,24.023,0,0,1,71.9993,42c0,4.21.07,8.16.241,12H23.76c.1714-3.84.24-7.79.24-12A24.023,24.023,0,0,1,48,18.0008ZM18.0711,77.9992a42.6217,42.6217,0,0,0,4.1945-12h51.47a42.62,42.62,0,0,0,4.1938,12Z"/></svg>