<?xml version="1.0" ?><svg viewBox="0 0 96 96" xmlns="http://www.w3.org/2000/svg"><g><path fill="#ffffff" d="M84.1,61.4707A13.2727,13.2727,0,0,0,96,48,13.2723,13.2723,0,0,0,84.1055,34.5293a1.5762,1.5762,0,0,1-1.0547-2.5313,13.2639,13.2639,0,0,0-1.1133-17.9355A13.2635,13.2635,0,0,0,64.002,12.9492a1.5521,1.5521,0,0,1-1.57.211,1.5018,1.5018,0,0,1-.9609-1.26A13.2727,13.2727,0,0,0,48,0,13.2723,13.2723,0,0,0,34.5293,11.8945a1.503,1.503,0,0,1-.9609,1.2657,1.4744,1.4744,0,0,1-1.57-.211,13.2638,13.2638,0,0,0-17.9355,1.1133A13.2639,13.2639,0,0,0,12.9492,31.998,1.5769,1.5769,0,0,1,11.9,34.5293,13.2727,13.2727,0,0,0,0,48,13.2723,13.2723,0,0,0,11.8945,61.4707a1.5762,1.5762,0,0,1,1.0547,2.5313,13.2639,13.2639,0,0,0,1.1133,17.9355A13.2635,13.2635,0,0,0,31.998,83.0508,1.5769,1.5769,0,0,1,34.5293,84.1,13.2727,13.2727,0,0,0,48,96,13.2723,13.2723,0,0,0,61.4707,84.1055a1.503,1.503,0,0,1,.9609-1.2657,1.5479,1.5479,0,0,1,1.57.211A13.5737,13.5737,0,0,0,83.0508,64.002,1.5769,1.5769,0,0,1,84.1,61.4707ZM82.623,49.5645A13.5739,13.5739,0,0,0,73.582,71.373a1.574,1.574,0,0,1-2.209,2.209,13.5739,13.5739,0,0,0-21.8085,9.041,1.5773,1.5773,0,0,1-3.129,0,13.4241,13.4241,0,0,0-8.2734-10.8691,13.6214,13.6214,0,0,0-5.2383-1.0547A13.471,13.471,0,0,0,24.627,73.582a1.3675,1.3675,0,0,1-2.08-.1289,1.3767,1.3767,0,0,1-.1289-2.08,13.5739,13.5739,0,0,0-9.041-21.8085,1.5773,1.5773,0,0,1,0-3.129A13.5739,13.5739,0,0,0,22.418,24.627a1.3767,1.3767,0,0,1,.1289-2.08,1.3772,1.3772,0,0,1,2.08-.1289,13.5739,13.5739,0,0,0,21.8085-9.041,1.5773,1.5773,0,0,1,3.129,0A13.5739,13.5739,0,0,0,71.373,22.418a1.376,1.376,0,0,1,2.08.1289,1.3767,1.3767,0,0,1,.1289,2.08,13.5739,13.5739,0,0,0,9.041,21.8085,1.5773,1.5773,0,0,1,0,3.129Z"/><path d="M48,36A12,12,0,1,0,60,48,12.0157,12.0157,0,0,0,48,36Z"/></g></svg>