<?xml version="1.0" ?><svg height="19px" version="1.1" viewBox="0 0 18 19" width="18px" xmlns="http://www.w3.org/2000/svg"  xmlns:xlink="http://www.w3.org/1999/xlink"><g fill="none" fill-rule="evenodd" id="Page-1" stroke="none" stroke-width="1"><g fill="#ffffff" id="Icons-AV" transform="translate(-169.000000, -170.000000)"><g id="volume-off" transform="translate(169.000000, 170.000000)"><path d="M13.5,9 C13.5,7.2 12.5,5.7 11,5 L11,7.2 L13.5,9.7 L13.5,9 L13.5,9 Z M16,9 C16,9.9 15.8,10.8 15.5,11.6 L17,13.1 C17.7,11.9 18,10.4 18,8.9 C18,4.6 15,1 11,0.1 L11,2.2 C13.9,3.2 16,5.8 16,9 L16,9 Z M1.3,0 L0,1.3 L4.7,6 L0,6 L0,12 L4,12 L9,17 L9,10.3 L13.3,14.6 C12.6,15.1 11.9,15.5 11,15.8 L11,17.9 C12.4,17.6 13.6,17 14.7,16.1 L16.7,18.1 L18,16.8 L9,7.8 L1.3,0 L1.3,0 Z M9,1 L6.9,3.1 L9,5.2 L9,1 L9,1 Z" id="Shape"/></g></g></g></svg>