<?xml version="1.0" ?><svg height="18px" version="1.1" viewBox="0 0 18 18" width="18px" xmlns="http://www.w3.org/2000/svg" xmlns:xlink="http://www.w3.org/1999/xlink"><g fill="none" fill-rule="evenodd" id="Page-1" stroke="none" stroke-width="1"><g fill="#ffffff" id="Icons-AV" transform="translate(-211.000000, -170.000000)"><g id="volume-up" transform="translate(211.000000, 170.000000)"><path d="M0,6 L0,12 L4,12 L9,17 L9,1 L4,6 L0,6 L0,6 Z M13.5,9 C13.5,7.2 12.5,5.7 11,5 L11,13 C12.5,12.3 13.5,10.8 13.5,9 L13.5,9 Z M11,0.2 L11,2.3 C13.9,3.2 16,5.8 16,9 C16,12.2 13.9,14.8 11,15.7 L11,17.8 C15,16.9 18,13.3 18,9 C18,4.7 15,1.1 11,0.2 L11,0.2 Z" id="Shape"/></g></g></g></svg>